<?xml version="1.0" standalone="no"?><!DOCTYPE svg PUBLIC "-//W3C//DTD SVG 1.1//EN" "http://www.w3.org/Graphics/SVG/1.1/DTD/svg11.dtd"><svg t="1674706061250" class="icon" viewBox="0 0 1024 1024" version="1.1" xmlns="http://www.w3.org/2000/svg" p-id="30019" xmlns:xlink="http://www.w3.org/1999/xlink" width="32" height="32"><path d="M725.333333 53.333333a298.666667 298.666667 0 0 1 209.066667 512l-392.234667 392.192a42.666667 42.666667 0 0 1-60.330666 0L89.6 565.333333a298.666667 298.666667 0 1 1 422.4-422.4h-0.042667l0.042667 0.042667 2.133333-2.133333a297.685333 297.685333 0 0 1 200.874667-87.338667L725.333333 53.333333z m-426.666666 85.333334c-58.88 0-112.213333 23.893333-150.869334 62.464A212.650667 212.650667 0 0 0 85.333333 352c0 59.818667 24.618667 113.92 64.298667 152.661333L512 867.029333l362.368-362.368A212.693333 212.693333 0 0 0 938.666667 352a208.64 208.64 0 0 0-63.829334-150.912c-39.978667-38.613333-95.573333-61.952-158.293333-62.250667-55.722667 2.261333-105.813333 26.112-144.213333 64.469334a162.602667 162.602667 0 0 0-24.192 32.426666 42.666667 42.666667 0 0 1-73.941334-0.853333l-4.522666-7.68a139.605333 139.605333 0 0 0-18.645334-24.490667A212.693333 212.693333 0 0 0 298.666667 138.666667z" fill="#ffffff" p-id="30020"></path></svg>