<?xml version="1.0" standalone="no"?><!DOCTYPE svg PUBLIC "-//W3C//DTD SVG 1.1//EN" "http://www.w3.org/Graphics/SVG/1.1/DTD/svg11.dtd"><svg t="1675278190122" class="icon" viewBox="0 0 1088 1024" version="1.1" xmlns="http://www.w3.org/2000/svg" p-id="6867" xmlns:xlink="http://www.w3.org/1999/xlink" width="34" height="32"><path d="M700.992 896H385.024v65.984H320V1024h448v-62.016h-67.008V896zM513.024 256v572.992h60.992V256H864L574.016 181.312V65.024h-60.992v116.288L222.016 256h291.008zM223.488 382.656l121.6 256.32 36.224-13.248-142.4-294.976c-3.392-6.272-10.048-10.24-19.072-9.728-8.192 0.32-15.296 4.8-17.856 11.2L64.768 627.2l37.632 10.368 121.088-254.912zM843.648 332.48l-138.112 295.616 37.888 10.368 121.728-255.36L987.52 640l36.48-13.312-143.232-295.616c-3.392-6.208-10.24-10.176-19.136-9.664-8.32 0.192-15.36 4.8-17.984 11.072zM1022.976 705.984c0 67.904-71.168 123.008-158.976 123.008-87.808 0-158.976-55.104-158.976-123.008h317.952zM382.976 705.984c0 67.904-71.168 123.008-158.976 123.008-87.808 0-158.976-55.104-158.976-123.008h317.952z" fill="#000000" p-id="6868"></path></svg>